{
	"asset":{
		"generator":"Khronos glTF Blender I/O v5.2.40",
		"version":"2.0"
	},
	"scene":0,
	"scenes":[
		{
			"name":"Scene",
			"nodes":[
				0
			]
		}
	],
	"nodes":[
		{
			"mesh":0,
			"name":"Cube.001",
			"rotation":[
				0,
				1,
				0,
				0
			],
			"scale":[
				-9.044412612915039,
				-1.2963796854019165,
				-9.044412612915039
			],
			"translation":[
				3.0723507404327393,
				11.964996337890625,
				10.750764846801758
			]
		}
	],
	"materials":[
		{
			"doubleSided":true,
			"name":"Material.001",
			"pbrMetallicRoughness":{
				"baseColorTexture":{
					"index":0
				},
				"metallicFactor":0,
				"roughnessFactor":0.5
			}
		}
	],
	"meshes":[
		{
			"name":"Cube.001",
			"primitives":[
				{
					"attributes":{
						"POSITION":0,
						"NORMAL":1,
						"TEXCOORD_0":2
					},
					"indices":3,
					"material":0
				}
			]
		}
	],
	"textures":[
		{
			"sampler":0,
			"source":0
		}
	],
	"images":[
		{
			"mimeType":"image/jpeg",
			"name":"TCom_Wood_OakVeneer2_header (1)",
			"uri":"TCom_Wood_OakVeneer2_header%20%281%29.jpg"
		}
	],
	"accessors":[
		{
			"bufferView":0,
			"componentType":5126,
			"count":518,
			"max":[
				1,
				9.789593696594238,
				1
			],
			"min":[
				-1,
				-14.55880355834961,
				-1
			],
			"type":"VEC3"
		},
		{
			"bufferView":1,
			"componentType":5126,
			"count":518,
			"type":"VEC3"
		},
		{
			"bufferView":2,
			"componentType":5126,
			"count":518,
			"type":"VEC2"
		},
		{
			"bufferView":3,
			"componentType":5123,
			"count":1176,
			"type":"SCALAR"
		}
	],
	"bufferViews":[
		{
			"buffer":0,
			"byteLength":6216,
			"byteOffset":0,
			"target":34962
		},
		{
			"buffer":0,
			"byteLength":6216,
			"byteOffset":6216,
			"target":34962
		},
		{
			"buffer":0,
			"byteLength":4144,
			"byteOffset":12432,
			"target":34962
		},
		{
			"buffer":0,
			"byteLength":2352,
			"byteOffset":16576,
			"target":34963
		}
	],
	"samplers":[
		{
			"magFilter":9729,
			"minFilter":9987
		}
	],
	"buffers":[
		{
			"byteLength":18928,
			"uri":"chair.bin"
		}
	]
}
